<?xml version="1.0" encoding="UTF-8"?><svg viewBox="0 0 40 39" xmlns="http://www.w3.org/2000/svg" xmlns:xlink="http://www.w3.org/1999/xlink"><style>:root>svg{display:none}:root>svg:target{display:block}</style><svg viewBox="0 0 40 39" id="bronze-medal" xmlns="http://www.w3.org/2000/svg"><g fill-rule="nonzero" fill="none"><circle fill="#CF9E71" cx="19.925" cy="19.452" r="19.452"/><path d="M22.563 17.22H10.237a1.752 1.752 0 01-1.745-1.745l.013-.12v-.027a1.822 1.822 0 011.825-1.838h8.543c1.132 0 2.132-.838 2.199-1.972a2.089 2.089 0 00-2.079-2.185h-9.05c-.998 0-1.745-.838-1.731-1.838v-.027-.026c-.014-.999.731-1.839 1.731-1.839h9.47c1.119 0 2.119-.838 2.185-1.958A2.081 2.081 0 0019.52 1.46h-6.935C5.513 4.375.53 11.328.53 19.452c0 8.123 4.983 15.075 12.057 17.986h8.805c1.118 0 2.118-.838 2.185-1.958a2.08 2.08 0 00-2.079-2.183l-10.016-.002a2.072 2.072 0 01-2.07-2.185c.058-1.12 1.065-1.962 2.186-1.962h3.884a2.077 2.077 0 002.018-2.071 2.08 2.08 0 00-2.078-2.079H9.535a1.731 1.731 0 01-1.732-1.745v-.146a1.64 1.64 0 011.639-1.745h13.001c1.132 0 2.132-.839 2.199-1.959a2.082 2.082 0 00-2.079-2.183z" fill="#B88D6F"/><path d="M19.925 33.335c-7.657 0-13.885-6.23-13.885-13.885 0-7.655 6.228-13.883 13.885-13.883s13.885 6.23 13.885 13.885c0 7.655-6.228 13.883-13.885 13.883z" fill="#E8B382"/><g fill="#B27A53"><path d="M13.235 24.948c-.218.199-.347.435-.448.685a1.902 1.902 0 00-.149.814c.02.298.142.626.159.921.003.039-.007.075-.005.112a13.934 13.934 0 01-1.434-2.342c.01-.165.035-.321.095-.46.097-.24.302-.42.432-.638.128-.218.192-.468.247-.723.05-.259.09-.52.065-.827-.024-.015-.049-.03-.072-.047-.248.132-.42.317-.57.52-.143.207-.267.43-.313.704-.044.275 0 .6-.049.868-.008.052-.031.097-.045.147-.36-.817-.64-1.662-.838-2.524.045-.186.107-.36.208-.496.14-.195.374-.31.54-.477.165-.17.274-.383.374-.607.096-.228.183-.461.213-.755l-.06-.06c-.26.062-.458.194-.638.345a1.548 1.548 0 00-.434.574c-.095.241-.116.551-.216.785-.025.063-.065.111-.099.168a14.206 14.206 0 01-.253-2.588c.088-.205.192-.392.342-.515.17-.147.41-.194.598-.309.187-.116.328-.293.463-.478.132-.192.255-.393.337-.667l-.045-.073a1.354 1.354 0 00-.662.17c-.193.105-.376.232-.511.435-.135.205-.212.49-.35.683-.047.069-.105.119-.162.172.03-.848.135-1.695.315-2.532l.025-.038c.135-.205.285-.387.473-.478.185-.097.415-.079.612-.142.195-.065.358-.198.518-.347.157-.153.309-.318.437-.566l-.028-.084a1.211 1.211 0 00-.642.004 1.192 1.192 0 00-.555.293c-.163.165-.29.42-.455.567a.996.996 0 01-.232.156c.22-.83.519-1.646.892-2.438l.022.028.096-.098c.167-.165.34-.303.529-.345.188-.048.393.027.583.012.19-.017.367-.109.543-.217.175-.115.349-.243.519-.46l-.007-.088a1.053 1.053 0 00-.583-.147 1.04 1.04 0 00-.567.157c-.183.123-.353.341-.533.445a.848.848 0 01-.275.106l.006-.053a14.285 14.285 0 012.317-3.162 14.535 14.535 0 00-2.267 2.814c.002-.03.015-.065.015-.095.015-.217.025-.432.005-.635-.065-.399-.173-.784-.468-1.109l-.095.035a2.881 2.881 0 00-.397 1.474c.014.215.062.411.127.6.053.195.15.366.27.525.017.023.033.045.052.068a14.34 14.34 0 00-.899 2.1l-.001-.023c-.049-.222-.095-.447-.167-.655-.167-.402-.37-.784-.74-1.069l-.083.055a3.111 3.111 0 00-.015 1.609c.066.22.168.415.281.598a1.812 1.812 0 00.419.505 14.544 14.544 0 00-.387 2.17 5.414 5.414 0 00-.318-.62c-.27-.383-.569-.742-1.009-.972a2.873 2.873 0 00-.07.072c-.01.687.162 1.213.392 1.663.125.215.277.397.438.564.142.163.314.286.495.396a14.73 14.73 0 00.104 2.167c-.147-.187-.292-.375-.452-.537-.372-.34-.765-.653-1.265-.815l-.053.085c.16.705.47 1.214.82 1.629.181.196.383.353.591.491.167.125.354.205.544.277.141.703.336 1.398.583 2.082-.188-.15-.373-.304-.568-.432-.47-.275-.952-.522-1.505-.595l-.034.095a4.129 4.129 0 001.257 1.5c.238.165.487.283.738.383.184.084.375.12.565.155.3.657.654 1.297 1.057 1.914-.223-.107-.445-.22-.668-.304-.56-.183-1.124-.341-1.715-.316l-.01.103a4.616 4.616 0 001.693 1.272c.292.118.583.188.873.238.19.042.377.035.565.037.314.4.652.786 1.012 1.16l.572-.572c-.415-.4-.8-.822-1.157-1.258a1.498 1.498 0 01-.005-.414c.035-.278.193-.518.27-.778.073-.262.078-.538.075-.818a3.384 3.384 0 00-.117-.875.65.65 0 00-.078-.034zM26.615 24.948c.218.199.347.435.448.685.097.252.167.517.149.814-.02.298-.142.626-.159.921-.003.039.007.075.005.112.56-.74 1.039-1.525 1.434-2.342a1.362 1.362 0 00-.095-.46c-.097-.24-.302-.42-.432-.638-.128-.218-.192-.468-.247-.723-.05-.259-.09-.52-.065-.827.024-.015.049-.03.072-.047.248.132.42.317.57.52.143.207.267.43.313.704.044.275 0 .6.049.868.008.052.031.097.045.147.36-.817.64-1.662.838-2.524a1.362 1.362 0 00-.208-.496c-.14-.195-.374-.31-.54-.477-.165-.17-.274-.383-.374-.607a2.518 2.518 0 01-.213-.755l.06-.06c.26.062.458.194.638.345.177.155.335.335.434.574.095.241.116.551.216.785.025.063.065.111.099.168.163-.853.248-1.72.253-2.588-.088-.205-.192-.392-.342-.515-.17-.147-.41-.194-.598-.309-.187-.116-.328-.293-.463-.478a2.292 2.292 0 01-.337-.667l.045-.073c.257-.007.465.072.662.17.193.105.376.232.511.435.135.205.212.49.35.683.047.069.105.119.162.172a14.463 14.463 0 00-.315-2.532l-.025-.038c-.135-.205-.285-.387-.473-.478-.185-.097-.415-.079-.612-.142-.195-.065-.358-.198-.518-.347a2.128 2.128 0 01-.437-.566l.028-.084c.235-.068.442-.043.642.004.198.053.392.131.555.293.163.165.29.42.455.567.072.068.15.113.232.156a13.93 13.93 0 00-.889-2.436c-.006.01-.015.018-.021.028l-.097-.098c-.167-.165-.34-.304-.528-.345-.189-.049-.394.026-.584.011-.19-.016-.366-.108-.543-.216a2.023 2.023 0 01-.518-.46c.001-.03.005-.06.006-.089.199-.121.39-.146.584-.146.191.005.383.036.566.156.184.124.354.342.534.445a.848.848 0 00.275.107c-.004-.017-.005-.035-.007-.052a14.285 14.285 0 00-2.317-3.161 14.535 14.535 0 012.267 2.813c-.002-.03-.015-.065-.015-.095a3.858 3.858 0 01-.005-.635c.065-.398.173-.783.468-1.108l.095.035c.314.551.395 1.033.397 1.473a2.246 2.246 0 01-.127.6c-.053.195-.15.367-.27.525a1.84 1.84 0 01-.051.068c.356.679.656 1.382.898 2.1.002-.006 0-.015.002-.023.045-.225.091-.45.163-.658.167-.402.37-.784.74-1.069.028.019.057.035.085.054.168.633.128 1.151.017 1.608a2.53 2.53 0 01-.282.598 1.812 1.812 0 01-.418.505c.183.714.313 1.439.386 2.17.099-.215.199-.428.319-.62.27-.383.568-.741 1.008-.971l.07.07a3.416 3.416 0 01-.392 1.663 2.907 2.907 0 01-.438.563 2.025 2.025 0 01-.495.397 14.73 14.73 0 01-.103 2.167c.146-.187.291-.375.451-.537.372-.34.765-.653 1.265-.815.019.028.035.057.054.085a3.73 3.73 0 01-.82 1.628 3.197 3.197 0 01-.592.492 2.143 2.143 0 01-.543.277 14.647 14.647 0 01-.584 2.081c.189-.15.374-.303.569-.431.47-.275.951-.522 1.505-.595l.033.095a4.129 4.129 0 01-1.257 1.5 3.625 3.625 0 01-.738.383c-.183.083-.375.12-.565.155-.3.657-.653 1.297-1.057 1.913.224-.106.445-.22.669-.303.56-.183 1.123-.342 1.715-.317l.01.104a4.616 4.616 0 01-1.694 1.271 4.183 4.183 0 01-.873.239c-.19.041-.377.035-.565.036-.313.4-.652.787-1.012 1.16l-.571-.571c.415-.4.8-.822 1.156-1.259.019-.143.025-.281.005-.413-.035-.278-.193-.518-.27-.778-.073-.262-.078-.539-.075-.819.009-.281.027-.563.117-.875.022-.01.048-.02.075-.03z"/></g><path d="M19.464 26.824c-2.106 0-3.528-.792-4.464-1.854l1.242-1.674c.792.774 1.764 1.368 2.97 1.368 1.35 0 2.268-.666 2.268-1.854 0-1.314-.774-2.124-3.672-2.124v-1.908c2.448 0 3.24-.846 3.24-2.034 0-1.044-.648-1.656-1.782-1.674-.954.018-1.728.468-2.52 1.188l-1.35-1.62C16.548 13.63 17.826 13 19.392 13c2.574 0 4.32 1.26 4.32 3.546 0 1.44-.81 2.484-2.232 3.042v.09c1.512.414 2.664 1.53 2.664 3.276 0 2.448-2.142 3.87-4.68 3.87z" fill="#B27A53"/></g></svg><svg viewBox="0 0 18 14" id="checked" xmlns="http://www.w3.org/2000/svg"><path d="M15.395 0l-9.13 8.812L2.506 5.22 0 7.614l6.265 6.075L17.901 2.48z" fill="#25E658" fill-rule="nonzero"/></svg><svg viewBox="0 0 15 14" id="dislike" xmlns="http://www.w3.org/2000/svg"><g fill="#FFF" fill-rule="nonzero"><path d="M15 9.371h-3.443V.285H15zM.624 5.574c0 .327.11.63.292.874a1.457 1.457 0 00.854 2.64h3.315l-.462 1.593v.764a2.554 2.554 0 002.552 2.551.62.62 0 00.618-.619v-1.692c.23-.368 1.508-1.802 2.904-3.304V.851L9.506.404a6.263 6.263 0 00-2.207-.4H2.71a1.46 1.46 0 00-1.167 2.332 1.457 1.457 0 00-.313 2.056 1.457 1.457 0 00-.605 1.182z"/></g></svg><svg viewBox="0 0 15 9" id="down" xmlns="http://www.w3.org/2000/svg"><path d="M12.702.051L7.2 5.553 1.698.051 0 1.749l7.2 7.2 7.2-7.2z" fill="#FFF" fill-rule="nonzero"/></svg><svg viewBox="0 0 7 12" id="down-right" xmlns="http://www.w3.org/2000/svg"><path d="M.04 2.12L4.319 6.4l-4.28 4.28L1.36 12l5.6-5.6L1.36.8z" fill="#4B4E55" fill-rule="nonzero"/></svg><svg viewBox="0 0 40 39" id="gold-medal" xmlns="http://www.w3.org/2000/svg"><g fill-rule="nonzero" fill="none"><circle fill="#FFCC5B" cx="19.925" cy="19.452" r="19.452"/><path d="M22.563 17.22H10.237a1.752 1.752 0 01-1.745-1.745l.013-.12v-.027a1.822 1.822 0 011.825-1.838h8.543c1.132 0 2.132-.838 2.199-1.972a2.089 2.089 0 00-2.079-2.185h-9.05c-.998 0-1.745-.838-1.731-1.838v-.027-.026c-.014-.999.731-1.839 1.731-1.839h9.47c1.119 0 2.119-.838 2.185-1.958A2.081 2.081 0 0019.52 1.46h-6.935C5.513 4.375.53 11.328.53 19.452c0 8.123 4.983 15.075 12.057 17.986h8.805c1.118 0 2.118-.838 2.185-1.958a2.08 2.08 0 00-2.079-2.183l-10.016-.002a2.072 2.072 0 01-2.07-2.185c.058-1.12 1.065-1.962 2.186-1.962h3.884a2.077 2.077 0 002.018-2.071 2.08 2.08 0 00-2.078-2.079H9.535a1.731 1.731 0 01-1.732-1.745v-.146a1.64 1.64 0 011.639-1.745h13.001c1.132 0 2.132-.839 2.199-1.959a2.082 2.082 0 00-2.079-2.183z" fill="#FDBC4B"/><path d="M19.925 33.335c-7.657 0-13.885-6.23-13.885-13.885 0-7.655 6.228-13.883 13.885-13.883s13.885 6.23 13.885 13.885c0 7.655-6.228 13.883-13.885 13.883z" fill="#FFDB70"/><g fill="#ED6362"><path d="M13.235 24.948c-.218.199-.347.435-.448.685a1.902 1.902 0 00-.149.814c.02.298.142.626.159.921.003.039-.007.075-.005.112a13.934 13.934 0 01-1.434-2.342c.01-.165.035-.321.095-.46.097-.24.302-.42.432-.638.128-.218.192-.468.247-.723.05-.259.09-.52.065-.827-.024-.015-.049-.03-.072-.047-.248.132-.42.317-.57.52-.143.207-.267.43-.313.704-.044.275 0 .6-.049.868-.008.052-.031.097-.045.147-.36-.817-.64-1.662-.838-2.524.045-.186.107-.36.208-.496.14-.195.374-.31.54-.477.165-.17.274-.383.374-.607.096-.228.183-.461.213-.755l-.06-.06c-.26.062-.458.194-.638.345a1.548 1.548 0 00-.434.574c-.095.241-.116.551-.216.785-.025.063-.065.111-.099.168a14.206 14.206 0 01-.253-2.588c.088-.205.192-.392.342-.515.17-.147.41-.194.598-.309.187-.116.328-.293.463-.478.132-.192.255-.393.337-.667l-.045-.073a1.354 1.354 0 00-.662.17c-.193.105-.376.232-.511.435-.135.205-.212.49-.35.683-.047.069-.105.119-.162.172.03-.848.135-1.695.315-2.532l.025-.038c.135-.205.285-.387.473-.478.185-.097.415-.079.612-.142.195-.065.358-.198.518-.347.157-.153.309-.318.437-.566l-.028-.084a1.211 1.211 0 00-.642.004 1.192 1.192 0 00-.555.293c-.163.165-.29.42-.455.567a.996.996 0 01-.232.156c.22-.83.519-1.646.892-2.438l.022.028.096-.098c.167-.165.34-.303.529-.345.188-.048.393.027.583.012.19-.017.367-.109.543-.217.175-.115.349-.243.519-.46l-.007-.088a1.053 1.053 0 00-.583-.147 1.04 1.04 0 00-.567.157c-.183.123-.353.341-.533.445a.848.848 0 01-.275.106l.006-.053a14.285 14.285 0 012.317-3.162 14.535 14.535 0 00-2.267 2.814c.002-.03.015-.065.015-.095.015-.217.025-.432.005-.635-.065-.399-.173-.784-.468-1.109l-.095.035a2.881 2.881 0 00-.397 1.474c.014.215.062.411.127.6.053.195.15.366.27.525.017.023.033.045.052.068a14.34 14.34 0 00-.899 2.1l-.001-.023c-.049-.222-.095-.447-.167-.655-.167-.402-.37-.784-.74-1.069l-.083.055a3.111 3.111 0 00-.015 1.609c.066.22.168.415.281.598a1.812 1.812 0 00.419.505 14.544 14.544 0 00-.387 2.17 5.414 5.414 0 00-.318-.62c-.27-.383-.569-.742-1.009-.972a2.873 2.873 0 00-.07.072c-.01.687.162 1.213.392 1.663.125.215.277.397.438.564.142.163.314.286.495.396a14.73 14.73 0 00.104 2.167c-.147-.187-.292-.375-.452-.537-.372-.34-.765-.653-1.265-.815l-.053.085c.16.705.47 1.214.82 1.629.181.196.383.353.591.491.167.125.354.205.544.277.141.703.336 1.398.583 2.082-.188-.15-.373-.304-.568-.432-.47-.275-.952-.522-1.505-.595l-.034.095a4.129 4.129 0 001.257 1.5c.238.165.487.283.738.383.184.084.375.12.565.155.3.657.654 1.297 1.057 1.914-.223-.107-.445-.22-.668-.304-.56-.183-1.124-.341-1.715-.316l-.01.103a4.616 4.616 0 001.693 1.272c.292.118.583.188.873.238.19.042.377.035.565.037.314.4.652.786 1.012 1.16l.572-.572c-.415-.4-.8-.822-1.157-1.258a1.498 1.498 0 01-.005-.414c.035-.278.193-.518.27-.778.073-.262.078-.538.075-.818a3.384 3.384 0 00-.117-.875.65.65 0 00-.078-.034zM26.615 24.948c.218.199.347.435.448.685.097.252.167.517.149.814-.02.298-.142.626-.159.921-.003.039.007.075.005.112.56-.74 1.039-1.525 1.434-2.342a1.362 1.362 0 00-.095-.46c-.097-.24-.302-.42-.432-.638-.128-.218-.192-.468-.247-.723-.05-.259-.09-.52-.065-.827.024-.015.049-.03.072-.047.248.132.42.317.57.52.143.207.267.43.313.704.044.275 0 .6.049.868.008.052.031.097.045.147.36-.817.64-1.662.838-2.524a1.362 1.362 0 00-.208-.496c-.14-.195-.374-.31-.54-.477-.165-.17-.274-.383-.374-.607a2.518 2.518 0 01-.213-.755l.06-.06c.26.062.458.194.638.345.177.155.335.335.434.574.095.241.116.551.216.785.025.063.065.111.099.168.163-.853.248-1.72.253-2.588-.088-.205-.192-.392-.342-.515-.17-.147-.41-.194-.598-.309-.187-.116-.328-.293-.463-.478a2.292 2.292 0 01-.337-.667l.045-.073c.257-.007.465.072.662.17.193.105.376.232.511.435.135.205.212.49.35.683.047.069.105.119.162.172a14.463 14.463 0 00-.315-2.532l-.025-.038c-.135-.205-.285-.387-.473-.478-.185-.097-.415-.079-.612-.142-.195-.065-.358-.198-.518-.347a2.128 2.128 0 01-.437-.566l.028-.084c.235-.068.442-.043.642.004.198.053.392.131.555.293.163.165.29.42.455.567.072.068.15.113.232.156a13.93 13.93 0 00-.889-2.436c-.006.01-.015.018-.021.028l-.097-.098c-.167-.165-.34-.304-.528-.345-.189-.049-.394.026-.584.011-.19-.016-.366-.108-.543-.216a2.023 2.023 0 01-.518-.46c.001-.03.005-.06.006-.089.199-.121.39-.146.584-.146.191.005.383.036.566.156.184.124.354.342.534.445a.848.848 0 00.275.107c-.004-.017-.005-.035-.007-.052a14.285 14.285 0 00-2.317-3.161 14.535 14.535 0 012.267 2.813c-.002-.03-.015-.065-.015-.095a3.858 3.858 0 01-.005-.635c.065-.398.173-.783.468-1.108l.095.035c.314.551.395 1.033.397 1.473a2.246 2.246 0 01-.127.6c-.053.195-.15.367-.27.525a1.84 1.84 0 01-.051.068c.356.679.656 1.382.898 2.1.002-.006 0-.015.002-.023.045-.225.091-.45.163-.658.167-.402.37-.784.74-1.069.028.019.057.035.085.054.168.633.128 1.151.017 1.608a2.53 2.53 0 01-.282.598 1.812 1.812 0 01-.418.505c.183.714.313 1.439.386 2.17.099-.215.199-.428.319-.62.27-.383.568-.741 1.008-.971l.07.07a3.416 3.416 0 01-.392 1.663 2.907 2.907 0 01-.438.563 2.025 2.025 0 01-.495.397 14.73 14.73 0 01-.103 2.167c.146-.187.291-.375.451-.537.372-.34.765-.653 1.265-.815.019.028.035.057.054.085a3.73 3.73 0 01-.82 1.628 3.197 3.197 0 01-.592.492 2.143 2.143 0 01-.543.277 14.647 14.647 0 01-.584 2.081c.189-.15.374-.303.569-.431.47-.275.951-.522 1.505-.595l.033.095a4.129 4.129 0 01-1.257 1.5 3.625 3.625 0 01-.738.383c-.183.083-.375.12-.565.155-.3.657-.653 1.297-1.057 1.913.224-.106.445-.22.669-.303.56-.183 1.123-.342 1.715-.317l.01.104a4.616 4.616 0 01-1.694 1.271 4.183 4.183 0 01-.873.239c-.19.041-.377.035-.565.036-.313.4-.652.787-1.012 1.16l-.571-.571c.415-.4.8-.822 1.156-1.259.019-.143.025-.281.005-.413-.035-.278-.193-.518-.27-.778-.073-.262-.078-.539-.075-.819.009-.281.027-.563.117-.875.022-.01.048-.02.075-.03z"/></g><path d="M16 26.32v-2.142h2.862v-8.424H16.45v-1.638c1.332-.252 2.25-.594 3.096-1.116h1.962v11.178h2.502v2.142H16z" fill="#ED6362"/></g></svg><svg viewBox="0 0 15 14" id="like" xmlns="http://www.w3.org/2000/svg"><g fill="#FFF" fill-rule="nonzero"><path d="M0 4.629h3.443v9.086H0zM14.376 8.426c0-.327-.11-.63-.292-.874a1.457 1.457 0 00-.854-2.64H9.915l.462-1.593v-.764A2.554 2.554 0 007.825.004a.62.62 0 00-.618.619v1.692c-.23.368-1.508 1.802-2.904 3.304v7.53l1.191.447c.708.265 1.45.4 2.207.4h4.59a1.46 1.46 0 001.167-2.332 1.457 1.457 0 00.313-2.056c.366-.265.605-.696.605-1.182z"/></g></svg><svg viewBox="0 0 22 22" id="magnifying-glass" xmlns="http://www.w3.org/2000/svg"><defs><linearGradient x1="50%" y1="0%" x2="50%" y2="100%" id="ha"><stop stop-color="#F1C448" offset="1.317%"/><stop stop-color="#D3AF4C" offset="32.498%"/><stop stop-color="#CBA235" offset="77.019%"/><stop stop-color="#B08C2B" offset="100%"/></linearGradient></defs><path d="M14.958 12.98A8.226 8.226 0 101.531 3.474 8.225 8.225 0 0012.428 15.31l6.065 6.029a1.721 1.721 0 102.434-2.434l-5.969-5.925zm-6.719.562a5.306 5.306 0 01-.003-10.61 5.305 5.305 0 01.007 10.61H8.24z" fill="url(#ha)" fill-rule="nonzero"/></svg><svg viewBox="0 0 22 22" id="magnifying-glass-popup" xmlns="http://www.w3.org/2000/svg"><path d="M14.958 12.98A8.226 8.226 0 101.531 3.474 8.225 8.225 0 0012.428 15.31l6.065 6.029a1.721 1.721 0 102.434-2.434l-5.969-5.925zm-6.719.562a5.306 5.306 0 01-.003-10.61 5.305 5.305 0 01.007 10.61H8.24z" fill="#D3D3D3" fill-rule="nonzero"/></svg><svg viewBox="0 0 30 30" id="plus" xmlns="http://www.w3.org/2000/svg"><path d="M15 0C6.729 0 0 6.729 0 15s6.729 15 15 15 15-6.729 15-15S23.271 0 15 0zm6.563 16.25H16.25v5.313a1.25 1.25 0 01-2.5 0V16.25H8.437a1.25 1.25 0 010-2.5h5.313V8.437a1.25 1.25 0 012.5 0v5.313h5.313a1.25 1.25 0 010 2.5z" fill="#FFF" fill-rule="nonzero"/></svg><svg viewBox="0 0 38 36" id="question-mark" xmlns="http://www.w3.org/2000/svg"><g fill-rule="nonzero" fill="none"><path d="M31.557 1.275H6.307a5.052 5.052 0 00-5.04 5.04v17.678a5.052 5.052 0 005.04 5.04h5.348a5.029 5.029 0 014.366 2.52l.733 1.267a2.52 2.52 0 004.367 0l.733-1.266a5.029 5.029 0 014.366-2.52h5.337a5.052 5.052 0 005.052-5.053V6.315a5.052 5.052 0 00-5.052-5.04z" fill="#F3D68E"/><path d="M20.198 33.743a2.52 2.52 0 01-3.444-.923l-.733-1.266a5.029 5.029 0 00-4.366-2.52h2.544a5.029 5.029 0 014.366 2.52l.733 1.266c.217.378.527.696.9.923zM8.839 29.033H6.307a5.052 5.052 0 01-5.053-5.052V6.315a5.052 5.052 0 015.053-5.04h2.532a5.052 5.052 0 00-5.053 5.04v17.678a5.052 5.052 0 005.053 5.04z" fill="#ECCC68"/><g fill="#393E46"><path d="M6.307 27.78a3.786 3.786 0 01-3.787-3.787V6.315A3.786 3.786 0 016.307 2.53h20.197a1.266 1.266 0 100-2.52H6.307A6.318 6.318 0 000 6.315v17.678a6.318 6.318 0 006.307 6.306 1.266 1.266 0 100-2.52zM31.557.009a1.266 1.266 0 100 2.52 3.786 3.786 0 013.786 3.786v17.678a3.786 3.786 0 01-3.786 3.786h-5.349a6.307 6.307 0 00-5.454 3.148c-.426.721-.828 1.88-1.822 1.893-.994.012-1.408-1.184-1.823-1.882a6.307 6.307 0 00-5.466-3.159h-.284a1.266 1.266 0 100 2.52h.296a3.774 3.774 0 013.277 1.894l.734 1.277a3.834 3.834 0 003.266 1.87 3.786 3.786 0 003.265-1.881l.734-1.266a3.774 3.774 0 013.277-1.894h5.337a6.318 6.318 0 006.318-6.306V6.315A6.318 6.318 0 0031.557.01z"/><path d="M24.15 13.332v-1.964a3.786 3.786 0 00-3.787-3.786h-1.29a3.786 3.786 0 00-3.786 3.786 1.266 1.266 0 001.278 1.266c.7 0 1.266-.567 1.266-1.266 0-.69.553-1.253 1.243-1.266h1.277a1.266 1.266 0 011.267 1.266v1.964a1.266 1.266 0 01-1.278 1.266 2.532 2.532 0 00-2.52 2.52v1.834a1.266 1.266 0 102.52 0v-1.834a3.786 3.786 0 003.81-3.786zM19.085 21.46a1.266 1.266 0 100 2.533 1.266 1.266 0 000-2.532z"/></g></g></svg><svg viewBox="0 0 5 8" id="right-bread" xmlns="http://www.w3.org/2000/svg"><path d="M0 .943L3.092 4 0 7.057.954 8 5 4 .954 0z" fill="#FFF" fill-rule="nonzero" opacity=".5"/></svg><svg viewBox="0 0 40 39" id="silver-medal" xmlns="http://www.w3.org/2000/svg"><g fill-rule="nonzero" fill="none"><circle fill="#D1D1D1" cx="19.925" cy="19.452" r="19.452"/><path d="M22.563 17.22H10.237a1.752 1.752 0 01-1.745-1.745l.013-.12v-.027a1.822 1.822 0 011.825-1.838h8.543c1.132 0 2.132-.838 2.199-1.972a2.089 2.089 0 00-2.079-2.185h-9.05c-.998 0-1.745-.838-1.731-1.838v-.027-.026c-.014-.999.731-1.839 1.731-1.839h9.47c1.119 0 2.119-.838 2.185-1.958A2.081 2.081 0 0019.52 1.46h-6.935C5.513 4.375.53 11.328.53 19.452c0 8.123 4.983 15.075 12.057 17.986h8.805c1.118 0 2.118-.838 2.185-1.958a2.08 2.08 0 00-2.079-2.183l-10.016-.002a2.072 2.072 0 01-2.07-2.185c.058-1.12 1.065-1.962 2.186-1.962h3.884a2.077 2.077 0 002.018-2.071 2.08 2.08 0 00-2.078-2.079H9.535a1.731 1.731 0 01-1.732-1.745v-.146a1.64 1.64 0 011.639-1.745h13.001c1.132 0 2.132-.839 2.199-1.959a2.082 2.082 0 00-2.079-2.183z" fill="#BCBCBC"/><path d="M19.925 33.335c-7.657 0-13.885-6.23-13.885-13.885 0-7.655 6.228-13.883 13.885-13.883s13.885 6.23 13.885 13.885c0 7.655-6.228 13.883-13.885 13.883z" fill="#E6E6E6"/><g fill="#BCBCBC"><path d="M13.235 24.948c-.218.199-.347.435-.448.685a1.902 1.902 0 00-.149.814c.02.298.142.626.159.921.003.039-.007.075-.005.112a13.934 13.934 0 01-1.434-2.342c.01-.165.035-.321.095-.46.097-.24.302-.42.432-.638.128-.218.192-.468.247-.723.05-.259.09-.52.065-.827-.024-.015-.049-.03-.072-.047-.248.132-.42.317-.57.52-.143.207-.267.43-.313.704-.044.275 0 .6-.049.868-.008.052-.031.097-.045.147-.36-.817-.64-1.662-.838-2.524.045-.186.107-.36.208-.496.14-.195.374-.31.54-.477.165-.17.274-.383.374-.607.096-.228.183-.461.213-.755l-.06-.06c-.26.062-.458.194-.638.345a1.548 1.548 0 00-.434.574c-.095.241-.116.551-.216.785-.025.063-.065.111-.099.168a14.206 14.206 0 01-.253-2.588c.088-.205.192-.392.342-.515.17-.147.41-.194.598-.309.187-.116.328-.293.463-.478.132-.192.255-.393.337-.667l-.045-.073a1.354 1.354 0 00-.662.17c-.193.105-.376.232-.511.435-.135.205-.212.49-.35.683-.047.069-.105.119-.162.172.03-.848.135-1.695.315-2.532l.025-.038c.135-.205.285-.387.473-.478.185-.097.415-.079.612-.142.195-.065.358-.198.518-.347.157-.153.309-.318.437-.566l-.028-.084a1.211 1.211 0 00-.642.004 1.192 1.192 0 00-.555.293c-.163.165-.29.42-.455.567a.996.996 0 01-.232.156c.22-.83.519-1.646.892-2.438l.022.028.096-.098c.167-.165.34-.303.529-.345.188-.048.393.027.583.012.19-.017.367-.109.543-.217.175-.115.349-.243.519-.46l-.007-.088a1.053 1.053 0 00-.583-.147 1.04 1.04 0 00-.567.157c-.183.123-.353.341-.533.445a.848.848 0 01-.275.106l.006-.053a14.285 14.285 0 012.317-3.162 14.535 14.535 0 00-2.267 2.814c.002-.03.015-.065.015-.095.015-.217.025-.432.005-.635-.065-.399-.173-.784-.468-1.109l-.095.035a2.881 2.881 0 00-.397 1.474c.014.215.062.411.127.6.053.195.15.366.27.525.017.023.033.045.052.068a14.34 14.34 0 00-.899 2.1l-.001-.023c-.049-.222-.095-.447-.167-.655-.167-.402-.37-.784-.74-1.069l-.083.055a3.111 3.111 0 00-.015 1.609c.066.22.168.415.281.598a1.812 1.812 0 00.419.505 14.544 14.544 0 00-.387 2.17 5.414 5.414 0 00-.318-.62c-.27-.383-.569-.742-1.009-.972a2.873 2.873 0 00-.07.072c-.01.687.162 1.213.392 1.663.125.215.277.397.438.564.142.163.314.286.495.396a14.73 14.73 0 00.104 2.167c-.147-.187-.292-.375-.452-.537-.372-.34-.765-.653-1.265-.815l-.053.085c.16.705.47 1.214.82 1.629.181.196.383.353.591.491.167.125.354.205.544.277.141.703.336 1.398.583 2.082-.188-.15-.373-.304-.568-.432-.47-.275-.952-.522-1.505-.595l-.034.095a4.129 4.129 0 001.257 1.5c.238.165.487.283.738.383.184.084.375.12.565.155.3.657.654 1.297 1.057 1.914-.223-.107-.445-.22-.668-.304-.56-.183-1.124-.341-1.715-.316l-.01.103a4.616 4.616 0 001.693 1.272c.292.118.583.188.873.238.19.042.377.035.565.037.314.4.652.786 1.012 1.16l.572-.572c-.415-.4-.8-.822-1.157-1.258a1.498 1.498 0 01-.005-.414c.035-.278.193-.518.27-.778.073-.262.078-.538.075-.818a3.384 3.384 0 00-.117-.875.65.65 0 00-.078-.034zM26.615 24.948c.218.199.347.435.448.685.097.252.167.517.149.814-.02.298-.142.626-.159.921-.003.039.007.075.005.112.56-.74 1.039-1.525 1.434-2.342a1.362 1.362 0 00-.095-.46c-.097-.24-.302-.42-.432-.638-.128-.218-.192-.468-.247-.723-.05-.259-.09-.52-.065-.827.024-.015.049-.03.072-.047.248.132.42.317.57.52.143.207.267.43.313.704.044.275 0 .6.049.868.008.052.031.097.045.147.36-.817.64-1.662.838-2.524a1.362 1.362 0 00-.208-.496c-.14-.195-.374-.31-.54-.477-.165-.17-.274-.383-.374-.607a2.518 2.518 0 01-.213-.755l.06-.06c.26.062.458.194.638.345.177.155.335.335.434.574.095.241.116.551.216.785.025.063.065.111.099.168.163-.853.248-1.72.253-2.588-.088-.205-.192-.392-.342-.515-.17-.147-.41-.194-.598-.309-.187-.116-.328-.293-.463-.478a2.292 2.292 0 01-.337-.667l.045-.073c.257-.007.465.072.662.17.193.105.376.232.511.435.135.205.212.49.35.683.047.069.105.119.162.172a14.463 14.463 0 00-.315-2.532l-.025-.038c-.135-.205-.285-.387-.473-.478-.185-.097-.415-.079-.612-.142-.195-.065-.358-.198-.518-.347a2.128 2.128 0 01-.437-.566l.028-.084c.235-.068.442-.043.642.004.198.053.392.131.555.293.163.165.29.42.455.567.072.068.15.113.232.156a13.93 13.93 0 00-.889-2.436c-.006.01-.015.018-.021.028l-.097-.098c-.167-.165-.34-.304-.528-.345-.189-.049-.394.026-.584.011-.19-.016-.366-.108-.543-.216a2.023 2.023 0 01-.518-.46c.001-.03.005-.06.006-.089.199-.121.39-.146.584-.146.191.005.383.036.566.156.184.124.354.342.534.445a.848.848 0 00.275.107c-.004-.017-.005-.035-.007-.052a14.285 14.285 0 00-2.317-3.161 14.535 14.535 0 012.267 2.813c-.002-.03-.015-.065-.015-.095a3.858 3.858 0 01-.005-.635c.065-.398.173-.783.468-1.108l.095.035c.314.551.395 1.033.397 1.473a2.246 2.246 0 01-.127.6c-.053.195-.15.367-.27.525a1.84 1.84 0 01-.051.068c.356.679.656 1.382.898 2.1.002-.006 0-.015.002-.023.045-.225.091-.45.163-.658.167-.402.37-.784.74-1.069.028.019.057.035.085.054.168.633.128 1.151.017 1.608a2.53 2.53 0 01-.282.598 1.812 1.812 0 01-.418.505c.183.714.313 1.439.386 2.17.099-.215.199-.428.319-.62.27-.383.568-.741 1.008-.971l.07.07a3.416 3.416 0 01-.392 1.663 2.907 2.907 0 01-.438.563 2.025 2.025 0 01-.495.397 14.73 14.73 0 01-.103 2.167c.146-.187.291-.375.451-.537.372-.34.765-.653 1.265-.815.019.028.035.057.054.085a3.73 3.73 0 01-.82 1.628 3.197 3.197 0 01-.592.492 2.143 2.143 0 01-.543.277 14.647 14.647 0 01-.584 2.081c.189-.15.374-.303.569-.431.47-.275.951-.522 1.505-.595l.033.095a4.129 4.129 0 01-1.257 1.5 3.625 3.625 0 01-.738.383c-.183.083-.375.12-.565.155-.3.657-.653 1.297-1.057 1.913.224-.106.445-.22.669-.303.56-.183 1.123-.342 1.715-.317l.01.104a4.616 4.616 0 01-1.694 1.271 4.183 4.183 0 01-.873.239c-.19.041-.377.035-.565.036-.313.4-.652.787-1.012 1.16l-.571-.571c.415-.4.8-.822 1.156-1.259.019-.143.025-.281.005-.413-.035-.278-.193-.518-.27-.778-.073-.262-.078-.539-.075-.819.009-.281.027-.563.117-.875.022-.01.048-.02.075-.03z"/></g><path d="M15.126 26.572v-1.53l.623-.564c3.24-2.969 5.137-5.299 5.137-7.23 0-1.35-.738-2.16-1.998-2.16-.972 0-1.782.63-2.448 1.368L15 15.016C16.224 13.72 17.412 13 19.23 13c2.52 0 4.194 1.62 4.194 4.104 0 2.412-1.998 5.004-4.428 7.38l.612-.06c.536-.047 1.11-.084 1.548-.084h2.898v2.232h-8.928z" fill="#91949B"/></g></svg><svg viewBox="0 0 15 14" id="star" xmlns="http://www.w3.org/2000/svg"><path d="M7.5 11.25l-4.408 2.318.842-4.91L.367 5.183l4.929-.716L7.5 0l2.204 4.466 4.929.716-3.567 3.477.842 4.909z" fill="#D2DBF0" fill-rule="evenodd"/></svg><svg viewBox="0 0 15 14" id="star-active" xmlns="http://www.w3.org/2000/svg"><path d="M7.5 11.25l-4.408 2.318.842-4.91L.367 5.183l4.929-.716L7.5 0l2.204 4.466 4.929.716-3.567 3.477.842 4.909z" fill="#F1C358" fill-rule="evenodd"/></svg><svg viewBox="0 0 20 19" id="star-big" xmlns="http://www.w3.org/2000/svg"><path d="M10 15l-5.878 3.09 1.123-6.545L.489 6.91l6.572-.955L10 0l2.939 5.955 6.572.955-4.756 4.635 1.123 6.545z" fill="#D2DBF0" fill-rule="evenodd"/></svg><svg viewBox="0 0 20 19" id="star-big-active" xmlns="http://www.w3.org/2000/svg"><path d="M10 15l-5.878 3.09 1.123-6.545L.489 6.91l6.572-.955L10 0l2.939 5.955 6.572.955-4.756 4.635 1.123 6.545z" fill="#F1C358" fill-rule="evenodd"/></svg></svg>