<?xml version="1.0" encoding="UTF-8"?>
<svg width="15px" height="14px" viewBox="0 0 15 14" version="1.1" xmlns="http://www.w3.org/2000/svg" xmlns:xlink="http://www.w3.org/1999/xlink">
    <!-- Generator: sketchtool 59.1 (101010) - https://sketch.com -->
    <title>69F51E95-0506-49CB-9134-B5F5A0147A15</title>
    <desc>Created with sketchtool.</desc>
    <g id="website" stroke="none" stroke-width="1" fill="none" fill-rule="evenodd">
        <g id="index" transform="translate(-189.000000, -1215.000000)" fill="#FFFFFF" fill-rule="nonzero">
            <g id="new-review-copy" transform="translate(140.000000, 1060.000000)">
                <g id="stars" transform="translate(45.000000, 120.000000)">
                    <g id="dislike" transform="translate(11.500000, 42.000000) rotate(-180.000000) translate(-11.500000, -42.000000) translate(4.000000, 35.000000)">
                        <rect id="Rectangle" x="0" y="4.62860656" width="3.44262295" height="9.08622951"></rect>
                        <path d="M14.3755902,8.42630738 C14.3755902,8.09854098 14.266832,7.79573361 14.0835697,7.55193852 C14.4496926,7.28671311 14.6885246,6.85606967 14.6885246,6.37051639 C14.6885246,5.56646311 14.0343402,4.91230738 13.2302869,4.91230738 L9.91547131,4.91230738 L10.3767828,3.31886066 L10.3767828,2.55537295 C10.3767828,1.14851639 9.23219672,0.00393032787 7.82534016,0.00393032787 C7.48420492,0.00393032787 7.20670082,0.281463115 7.20670082,0.622569672 L7.20670082,2.31519262 C6.97664754,2.68338115 5.69909016,4.11694672 4.30327869,5.61890574 L4.30327869,13.1493566 L5.49436885,13.5960082 C6.20231557,13.8614918 6.94465984,13.9960984 7.70077459,13.9960984 L12.2914836,13.9960984 C13.0955369,13.9960984 13.7496926,13.3419139 13.7496926,12.5378607 C13.7496926,12.2102377 13.6410779,11.9074877 13.457959,11.66375 C13.8240246,11.3985533 14.062627,10.967623 14.062627,10.4820697 C14.062627,10.1543033 13.9538689,9.8514959 13.7706352,9.60770082 C14.1367582,9.34256148 14.3755902,8.91191803 14.3755902,8.42630738 Z" id="Path"></path>
                    </g>
                </g>
            </g>
        </g>
    </g>
</svg>