<?xml version="1.0" encoding="UTF-8"?>
<svg width="22px" height="22px" viewBox="0 0 22 22" version="1.1" xmlns="http://www.w3.org/2000/svg" xmlns:xlink="http://www.w3.org/1999/xlink">
    <!-- Generator: sketchtool 59.1 (101010) - https://sketch.com -->
    <title>6ABF616D-D9A8-4BFD-970F-DDD64175AFE9</title>
    <desc>Created with sketchtool.</desc>
    <g id="website" stroke="none" stroke-width="1" fill="none" fill-rule="evenodd">
        <g id="hovers" transform="translate(-1528.000000, -78.000000)" fill="#D3D3D3" fill-rule="nonzero">
            <g id="new-header">
                <g id="magnifying-glass" transform="translate(1528.000000, 78.000000)">
                    <path d="M14.9581433,12.9803261 C17.5839416,9.27246815 16.7057482,4.13817286 12.99789,1.51300182 C9.29003185,-1.11216921 4.15573673,-0.234603182 1.53056569,3.47388222 C-1.09460534,7.18174038 -0.217039153,12.3154083 3.49144625,14.9405793 C6.13794476,16.8142678 9.63691838,16.9585425 12.4283188,15.3100479 L18.493499,21.3388457 C19.1483806,22.0282276 20.2379676,22.055828 20.9273494,21.4009466 C21.6167313,20.7466924 21.6443316,19.6571053 20.9900776,18.9677236 C20.9693772,18.9457687 20.9493042,18.9256958 20.9273494,18.9049954 L14.9581433,12.9803261 Z M8.23933626,13.5423701 C5.30930657,13.5429973 2.9337933,11.169366 2.93191129,8.23933626 C2.93128418,5.30930657 5.30491556,2.9337933 8.2355725,2.93253832 C11.1618384,2.93128418 13.5360972,5.30115196 13.5417506,8.22741788 C13.5467609,11.1580748 11.1743842,13.5373517 8.24309987,13.5423701 C8.24184539,13.5423701 8.24121799,13.5423701 8.23933626,13.5423701 Z" id="Shape"></path>
                </g>
            </g>
        </g>
    </g>
</svg>