<?xml version="1.0" encoding="UTF-8"?>
<svg width="30px" height="30px" viewBox="0 0 30 30" version="1.1" xmlns="http://www.w3.org/2000/svg" xmlns:xlink="http://www.w3.org/1999/xlink">
    <!-- Generator: Sketch 59.1 (86144) - https://sketch.com -->
    <title>plus</title>
    <desc>Created with Sketch.</desc>
    <g id="website" stroke="none" stroke-width="1" fill="none" fill-rule="evenodd">
        <g id="hovers" transform="translate(-533.000000, -1168.000000)" fill="#FFFFFF" fill-rule="nonzero">
            <g id="screen-copy" transform="translate(400.000000, 1103.000000)">
                <g id="plus" transform="translate(133.000000, 65.000000)">
                    <path d="M15,0 C6.72866824,0 0,6.72866824 0,15 C0,23.2713318 6.72866824,30 15,30 C23.2713318,30 30,23.2713318 30,15 C30,6.72866824 23.2713318,0 15,0 Z M21.5625,16.2499237 L16.2499237,16.2499237 L16.2499237,21.5625 C16.2499237,22.2525787 15.6900787,22.8124237 15,22.8124237 C14.3099212,22.8124237 13.7500763,22.2525787 13.7500763,21.5625 L13.7500763,16.2499237 L8.4375,16.2499237 C7.74742125,16.2499237 7.18757631,15.6900787 7.18757631,15 C7.18757631,14.3099212 7.74742125,13.7500763 8.4375,13.7500763 L13.7500763,13.7500763 L13.7500763,8.4375 C13.7500763,7.74742125 14.3099212,7.18757631 15,7.18757631 C15.6900787,7.18757631 16.2499237,7.74742125 16.2499237,8.4375 L16.2499237,13.7500763 L21.5625,13.7500763 C22.2525787,13.7500763 22.8124237,14.3099212 22.8124237,15 C22.8124237,15.6900787 22.2525787,16.2499237 21.5625,16.2499237 L21.5625,16.2499237 Z" id="Shape"></path>
                </g>
            </g>
        </g>
    </g>
</svg>