<?xml version="1.0" encoding="UTF-8"?>
<svg width="38px" height="36px" viewBox="0 0 38 36" version="1.1" xmlns="http://www.w3.org/2000/svg" xmlns:xlink="http://www.w3.org/1999/xlink">
    <!-- Generator: sketchtool 59.1 (101010) - https://sketch.com -->
    <title>D8109F7B-55ED-4493-8301-1AF6683DD6AA</title>
    <desc>Created with sketchtool.</desc>
    <g id="website" stroke="none" stroke-width="1" fill="none" fill-rule="evenodd">
        <g id="index" transform="translate(-156.000000, -6278.000000)" fill-rule="nonzero">
            <g id="faq" transform="translate(156.000000, 6253.000000)">
                <g id="question-mark" transform="translate(0.000000, 25.000000)">
                    <path d="M31.5566021,1.27492459 L6.30658753,1.27492459 C3.52547489,1.28143014 1.27255596,3.53434907 1.2660504,6.31546171 L1.2660504,23.9928384 C1.27255596,26.773951 3.52547489,29.0268699 6.30658753,29.0333755 L11.6547631,29.0333755 C13.4565379,29.0306169 15.1220955,29.9920363 16.0208621,31.5536441 L16.7544614,32.8196945 C17.0885989,33.3987513 17.6391194,33.8213208 18.2848711,33.9944088 C18.9306228,34.1674969 19.6186878,34.0769195 20.1976452,33.7426097 C20.5793166,33.5191785 20.8971292,33.2013658 21.1205605,32.8196945 L21.8541598,31.5536441 C22.7529264,29.9920363 24.418484,29.0306169 26.2202588,29.0333755 L31.5566021,29.0333755 C34.3469487,29.0333755 36.6089715,26.7713527 36.6089715,23.9810061 L36.6089715,6.31546171 C36.6024475,3.52973705 34.3423344,1.27492459 31.5566021,1.27492459 L31.5566021,1.27492459 Z" id="Path" fill="#F3D68E"></path>
                    <path d="M20.1976452,33.7426097 C19.6186878,34.0769195 18.9306228,34.1674969 18.2848711,33.9944088 C17.6391194,33.8213208 17.0885989,33.3987513 16.7544614,32.8196945 L16.0208621,31.5536441 C15.1220955,29.9920363 13.4565379,29.0306169 11.6547631,29.0333696 L14.1986961,29.0333696 C16.000471,29.0306169 17.6660285,29.9920363 18.5647952,31.5536441 L19.2983945,32.8196945 C19.5152386,33.1984558 19.824643,33.5160025 20.1976452,33.7426097 L20.1976452,33.7426097 Z" id="Path" fill="#ECCC68"></path>
                    <path d="M8.83868833,29.0333755 L6.30658753,29.0333755 C3.51624097,29.0333755 1.25421816,26.7713527 1.25421816,23.9810061 L1.25421816,6.31546171 C1.26074212,3.52973705 3.52085523,1.27492459 6.30658753,1.27492459 L8.83868833,1.27492459 C6.05295604,1.27492459 3.79284293,3.52973705 3.78631896,6.31546171 L3.78631896,23.9928384 C3.79284293,26.778563 6.05295604,29.0333755 8.83868833,29.0333755 L8.83868833,29.0333755 Z" id="Path" fill="#ECCC68"></path>
                    <g id="Group" fill="#393E46">
                        <path d="M6.30658753,27.7791573 C4.2154613,27.7791573 2.52026856,26.0839646 2.52026856,23.9928384 L2.52026856,6.31546171 C2.52026856,4.22433549 4.2154613,2.52914275 6.30658753,2.52914275 L26.5042328,2.52914275 C26.9835903,2.57564713 27.44782,2.34615104 27.7019422,1.93704444 C27.9560643,1.52793784 27.9560643,1.01007909 27.7019422,0.600972492 C27.44782,0.191865891 26.9835903,-0.0376301975 26.5042328,0.00887418507 L6.30658753,0.00887418507 C2.82625609,0.01538558 0.00651139489,2.83513027 -2.37143638e-15,6.31546171 L-2.37143638e-15,23.9928384 C0.00651139489,27.4731698 2.82625609,30.2929145 6.30658753,30.2994259 C6.78594505,30.3459303 7.25017476,30.1164342 7.50429694,29.7073276 C7.75841912,29.298221 7.75841912,28.7803623 7.50429694,28.3712556 C7.25017476,27.962149 6.78594505,27.732653 6.30658753,27.7791573 Z" id="Path"></path>
                        <path d="M31.5566021,0.00887418507 C31.0772446,-0.0376301975 30.6130149,0.191865891 30.3588927,0.600972492 C30.1047705,1.01007909 30.1047705,1.52793784 30.3588927,1.93704444 C30.6130149,2.34615104 31.0772446,2.57564713 31.5566021,2.52914275 C33.6477283,2.52914275 35.3429211,4.22433549 35.3429211,6.31546171 L35.3429211,23.9928384 C35.3429211,26.0839646 33.6477283,27.7791573 31.5566021,27.7791573 L26.2084266,27.7791573 C23.9590197,27.7804342 21.8805742,28.9797108 20.7537608,30.926535 C20.3277999,31.648302 19.9255036,32.8078622 18.9315948,32.8196945 C17.9376861,32.8315267 17.5235575,31.6364698 17.1094288,30.9383672 C15.9835079,28.9833288 13.8990055,27.7786488 11.6429308,27.7791573 L11.3589569,27.7791573 C10.8795994,27.732653 10.4153697,27.962149 10.1612475,28.3712556 C9.9071253,28.7803623 9.9071253,29.298221 10.1612475,29.7073276 C10.4153697,30.1164342 10.8795994,30.3459303 11.3589569,30.2994259 L11.6547631,30.2994259 C13.0075985,30.297519 14.2579988,31.0197719 14.9322954,32.1925854 L15.6658947,33.470468 C16.3527108,34.621763 17.5910316,35.3306568 18.9315948,35.339963 C20.2771136,35.3376561 21.5203318,34.6214544 22.1972949,33.4586358 L22.9308942,32.1925854 C23.6051908,31.0197719 24.8555911,30.297519 26.2084266,30.2994259 L31.5447699,30.2994259 C35.0297212,30.299432 37.8566635,27.4777836 37.8631896,23.9928384 L37.8631896,6.31546171 C37.8566783,2.83513027 35.0369336,0.01538558 31.5566021,0.00887418507 L31.5566021,0.00887418507 Z" id="Path"></path>
                        <path d="M24.1496156,13.331984 L24.1496156,11.3678311 C24.1496156,9.27670486 22.4544229,7.58151211 20.3632967,7.58151211 L19.0735818,7.58151211 C16.9824556,7.58151211 15.2872628,9.27670486 15.2872628,11.3678311 C15.2872628,11.7056687 15.4222581,12.0294998 15.6622539,12.2672733 C15.9022497,12.5050469 16.2273226,12.6370388 16.5651455,12.6338815 C17.2643658,12.6338815 17.8311959,12.0670514 17.8311959,11.3678311 C17.8310753,10.677749 18.3836203,10.1146794 19.0735818,10.1017807 L20.3514644,10.1017807 C20.6872419,10.1017807 21.0092668,10.2351677 21.2466973,10.4725983 C21.4841278,10.7100288 21.6175148,11.0320536 21.6175148,11.3678311 L21.6175148,13.331984 C21.6175296,13.6698216 21.4825195,13.9936527 21.2425238,14.2314263 C21.002528,14.4691999 20.677455,14.6011918 20.3396322,14.5980344 C18.9504178,14.6045111 17.8258403,15.7290887 17.8193636,17.118303 L17.8193636,18.9523013 C17.7728592,19.4316588 18.0023553,19.8958885 18.4114619,20.1500107 C18.8205685,20.4041328 19.3384273,20.4041328 19.7475339,20.1500107 C20.1566405,19.8958885 20.3861366,19.4316588 20.3396322,18.9523013 L20.3396322,17.118303 C21.3479203,17.1246049 22.317076,16.7284741 23.0322749,16.0177174 C23.7474739,15.3069606 24.1496156,14.3402919 24.1496156,13.331984 L24.1496156,13.331984 Z" id="Path"></path>
                        <path d="M19.085414,21.4607376 C18.3861937,21.4607376 17.8193636,22.0275676 17.8193636,22.726788 C17.8193636,23.4260083 18.3861937,23.9928384 19.085414,23.9928384 C19.7846344,23.9928384 20.3514644,23.4260083 20.3514644,22.726788 C20.3514644,22.0275676 19.7846344,21.4607376 19.085414,21.4607376 L19.085414,21.4607376 Z" id="Path"></path>
                    </g>
                </g>
            </g>
        </g>
    </g>
</svg>