<?xml version="1.0" encoding="UTF-8"?>
<svg width="40px" height="39px" viewBox="0 0 40 39" version="1.1" xmlns="http://www.w3.org/2000/svg" xmlns:xlink="http://www.w3.org/1999/xlink">
    <!-- Generator: sketchtool 59.1 (101010) - https://sketch.com -->
    <title>DF811E33-AC84-4DC3-AB7B-9E7F531AC37C</title>
    <desc>Created with sketchtool.</desc>
    <g id="website" stroke="none" stroke-width="1" fill="none" fill-rule="evenodd">
        <g id="index" transform="translate(-140.000000, -1070.000000)" fill-rule="nonzero">
            <g id="new-review-copy" transform="translate(140.000000, 1060.000000)">
                <g id="silver-medal" transform="translate(0.000000, 10.000000)">
                    <circle id="Oval" fill="#D1D1D1" cx="19.925" cy="19.4516667" r="19.4516667"></circle>
                    <path d="M22.5633333,17.22 L10.2366667,17.22 C9.27833333,17.22 8.49166667,16.4333333 8.49166667,15.475 L8.505,15.355 L8.505,15.3283333 C8.49166667,14.3166667 9.31666667,13.49 10.33,13.49 L18.8733333,13.49 C20.005,13.49 21.005,12.6516667 21.0716667,11.5183333 C21.125,10.3333333 20.18,9.33333333 18.9933333,9.33333333 L9.94333333,9.33333333 C8.945,9.33333333 8.19833333,8.495 8.21166667,7.495 C8.21166667,7.48166667 8.21166667,7.48166667 8.21166667,7.46833333 C8.21166667,7.455 8.21166667,7.455 8.21166667,7.44166667 C8.19833333,6.44333333 8.94333333,5.60333333 9.94333333,5.60333333 L19.4133333,5.60333333 C20.5316667,5.60333333 21.5316667,4.765 21.5983333,3.645 C21.6516667,2.44666667 20.7066667,1.46 19.52,1.46 L12.585,1.46 C5.51333333,4.375 0.53,11.3283333 0.53,19.4516667 C0.53,27.575 5.51333333,34.5266667 12.5866667,37.4383333 L21.3916667,37.4383333 C22.51,37.4383333 23.51,36.6 23.5766667,35.48 C23.63,34.2816667 22.685,33.2966667 21.4983333,33.2966667 L11.4816667,33.295 C10.3,33.295 9.34833333,32.3066667 9.41166667,31.11 C9.47,29.99 10.4766667,29.1483333 11.5983333,29.1483333 L15.4816667,29.1483333 C16.5983333,29.1166667 17.5,28.2016667 17.5,27.0766667 C17.5,25.9316667 16.5683333,24.9983333 15.4216667,24.9983333 L9.535,24.9983333 C8.57666667,24.9983333 7.79,24.2133333 7.80333333,23.2533333 L7.80333333,23.1066667 C7.73666667,22.1616667 8.49666667,21.3616667 9.44166667,21.3616667 L22.4433333,21.3616667 C23.575,21.3616667 24.575,20.5233333 24.6416667,19.4033333 C24.695,18.2066667 23.7483333,17.22 22.5633333,17.22 Z" id="Path" fill="#BCBCBC"></path>
                    <path d="M19.925,33.335 C12.2683333,33.335 6.04,27.105 6.04,19.45 C6.04,11.795 12.2683333,5.56666667 19.925,5.56666667 C27.5816667,5.56666667 33.81,11.7966667 33.81,19.4516667 C33.81,27.1066667 27.5816667,33.335 19.925,33.335 Z" id="Path" fill="#E6E6E6"></path>
                    <g id="Group" transform="translate(7.854167, 8.958333)" fill="#BCBCBC">
                        <path d="M5.38083333,15.99 C5.1625,16.1883333 5.03416667,16.425 4.9325,16.675 C4.83583333,16.9266667 4.76583333,17.1916667 4.78416667,17.4883333 C4.80416667,17.7866667 4.92583333,18.115 4.9425,18.41 C4.94583333,18.4483333 4.93583333,18.485 4.9375,18.5216667 C4.3775,17.7816667 3.89916667,16.9966667 3.50416667,16.18 C3.51416667,16.015 3.53916667,15.8583333 3.59916667,15.72 C3.69583333,15.48 3.90083333,15.3 4.03083333,15.0816667 C4.15916667,14.8633333 4.2225,14.6133333 4.2775,14.3583333 C4.3275,14.1 4.3675,13.8383333 4.3425,13.5316667 C4.31916667,13.5166667 4.29416667,13.5016667 4.27083333,13.485 C4.0225,13.6166667 3.85083333,13.8016667 3.70083333,14.005 C3.5575,14.2116667 3.43416667,14.435 3.3875,14.7083333 C3.34416667,14.9833333 3.3875,15.3083333 3.33916667,15.5766667 C3.33083333,15.6283333 3.3075,15.6733333 3.29416667,15.7233333 C2.93416667,14.9066667 2.65416667,14.0616667 2.45583333,13.2 C2.50083333,13.0133333 2.5625,12.84 2.66416667,12.7033333 C2.80416667,12.5083333 3.0375,12.3933333 3.20416667,12.2266667 C3.36916667,12.0566667 3.4775,11.8433333 3.5775,11.62 C3.67416667,11.3916667 3.76083333,11.1583333 3.79083333,10.865 C3.77083333,10.845 3.75083333,10.825 3.73083333,10.805 C3.47083333,10.8666667 3.2725,10.9983333 3.0925,11.15 C2.91583333,11.305 2.7575,11.485 2.65916667,11.7233333 C2.56416667,11.965 2.5425,12.275 2.4425,12.5083333 C2.4175,12.5716667 2.3775,12.62 2.34416667,12.6766667 C2.18083333,11.8233333 2.09583333,10.9566667 2.09083333,10.0883333 C2.17916667,9.88333333 2.2825,9.69666667 2.4325,9.57333333 C2.6025,9.42666667 2.8425,9.38 3.03083333,9.265 C3.2175,9.14833333 3.35916667,8.97166667 3.49416667,8.78666667 C3.62583333,8.595 3.74916667,8.39333333 3.83083333,8.12 C3.81583333,8.095 3.80083333,8.07166667 3.78583333,8.04666667 C3.52916667,8.04 3.32083333,8.11833333 3.12416667,8.21666667 C2.93083333,8.32166667 2.7475,8.44833333 2.6125,8.65166667 C2.4775,8.85666667 2.40083333,9.14166667 2.2625,9.335 C2.21583333,9.40333333 2.1575,9.45333333 2.10083333,9.50666667 C2.13083333,8.65833333 2.23583333,7.81166667 2.41583333,6.975 C2.42416667,6.96166667 2.4325,6.95 2.44083333,6.93666667 C2.57583333,6.73166667 2.72583333,6.55 2.91416667,6.45833333 C3.09916667,6.36166667 3.32916667,6.38 3.52583333,6.31666667 C3.72083333,6.25166667 3.88416667,6.11833333 4.04416667,5.97 C4.20083333,5.81666667 4.3525,5.65166667 4.48083333,5.40333333 C4.47083333,5.37666667 4.4625,5.34833333 4.4525,5.32 C4.2175,5.25166667 4.01083333,5.27666667 3.81083333,5.32333333 C3.6125,5.37666667 3.41916667,5.455 3.25583333,5.61666667 C3.0925,5.78166667 2.96583333,6.03666667 2.80083333,6.18333333 C2.72916667,6.25166667 2.65083333,6.29666667 2.56916667,6.34 C2.78916667,5.51 3.0875,4.69333333 3.46083333,3.90166667 C3.4675,3.91166667 3.47583333,3.92 3.4825,3.93 C3.51416667,3.89666667 3.5475,3.865 3.57916667,3.83166667 C3.74583333,3.66666667 3.91916667,3.52833333 4.1075,3.48666667 C4.29583333,3.43833333 4.50083333,3.51333333 4.69083333,3.49833333 C4.88083333,3.48166667 5.0575,3.39 5.23416667,3.28166667 C5.40916667,3.16666667 5.5825,3.03833333 5.7525,2.82166667 C5.75083333,2.79166667 5.7475,2.76166667 5.74583333,2.73333333 C5.5475,2.61166667 5.35583333,2.58666667 5.1625,2.58666667 C4.97083333,2.59166667 4.77916667,2.62333333 4.59583333,2.74333333 C4.4125,2.86666667 4.2425,3.085 4.0625,3.18833333 C3.97416667,3.24333333 3.88083333,3.275 3.7875,3.295 C3.79083333,3.27666667 3.79083333,3.26 3.79416667,3.24166667 C4.40083333,2.115 5.1725,1.05 6.11083333,0.08 C5.2225,0.938333333 4.4675,1.885 3.84416667,2.89333333 C3.84583333,2.86333333 3.85916667,2.82833333 3.85916667,2.79833333 C3.87416667,2.58166667 3.88416667,2.36666667 3.86416667,2.16333333 C3.79916667,1.765 3.69083333,1.38 3.39583333,1.055 C3.36416667,1.06666667 3.3325,1.07833333 3.30083333,1.09 C2.9875,1.64166667 2.90583333,2.12333333 2.90416667,2.56333333 C2.9175,2.77833333 2.96583333,2.975 3.03083333,3.16333333 C3.08416667,3.35833333 3.18083333,3.53 3.30083333,3.68833333 C3.3175,3.71166667 3.33416667,3.73333333 3.3525,3.75666667 C2.99583333,4.435 2.69583333,5.13833333 2.45416667,5.85666667 C2.4525,5.85 2.45416667,5.84166667 2.4525,5.83333333 C2.40416667,5.61166667 2.3575,5.38666667 2.28583333,5.17833333 C2.11916667,4.77666667 1.91583333,4.395 1.54583333,4.11 C1.5175,4.12833333 1.49083333,4.14666667 1.4625,4.165 C1.29416667,4.79833333 1.33416667,5.31666667 1.4475,5.77333333 C1.51416667,5.99333333 1.61583333,6.18833333 1.72916667,6.37166667 C1.8325,6.56333333 1.97416667,6.72333333 2.13416667,6.865 C2.13916667,6.86833333 2.14416667,6.87333333 2.1475,6.87666667 C1.96416667,7.59 1.83416667,8.315 1.76083333,9.04666667 C1.6625,8.83166667 1.5625,8.61833333 1.4425,8.42666667 C1.1725,8.04333333 0.874166667,7.685 0.434166667,7.455 C0.410833333,7.47833333 0.3875,7.50166667 0.364166667,7.52666667 C0.354166667,8.21333333 0.525833333,8.74 0.755833333,9.19 C0.880833333,9.405 1.0325,9.58666667 1.19416667,9.75333333 C1.33583333,9.91666667 1.5075,10.04 1.68916667,10.15 C1.67083333,10.8716667 1.70416667,11.5966667 1.7925,12.3166667 C1.64583333,12.13 1.50083333,11.9416667 1.34083333,11.78 C0.969166667,11.44 0.575833333,11.1266667 0.0758333333,10.965 C0.0575,10.9933333 0.0408333333,11.0216667 0.0225,11.05 C0.1825,11.755 0.4925,12.2633333 0.8425,12.6783333 C1.02416667,12.875 1.22583333,13.0316667 1.43416667,13.17 C1.60083333,13.295 1.7875,13.375 1.9775,13.4466667 C2.11916667,14.15 2.31416667,14.845 2.56083333,15.5283333 C2.3725,15.3783333 2.1875,15.225 1.9925,15.0966667 C1.5225,14.8216667 1.04083333,14.575 0.4875,14.5016667 C0.475833333,14.5333333 0.465833333,14.565 0.454166667,14.5966667 C0.795833333,15.285 1.2425,15.7433333 1.71083333,16.0966667 C1.94916667,16.2616667 2.1975,16.38 2.44916667,16.48 C2.6325,16.5633333 2.82416667,16.6 3.01416667,16.635 C3.31416667,17.2916667 3.6675,17.9316667 4.07083333,18.5483333 C3.8475,18.4416667 3.62583333,18.3283333 3.4025,18.245 C2.8425,18.0616667 2.27916667,17.9033333 1.6875,17.9283333 C1.68416667,17.9633333 1.68083333,17.9966667 1.6775,18.0316667 C2.20583333,18.665 2.79083333,19.04 3.37083333,19.3033333 C3.6625,19.4216667 3.95416667,19.4916667 4.24416667,19.5416667 C4.43416667,19.5833333 4.62083333,19.5766667 4.80916667,19.5783333 C5.1225,19.9783333 5.46083333,20.365 5.82083333,20.7383333 C6.01083333,20.5483333 6.2025,20.3566667 6.3925,20.1666667 C5.9775,19.7666667 5.5925,19.345 5.23583333,18.9083333 C5.2175,18.765 5.21083333,18.6266667 5.23083333,18.495 C5.26583333,18.2166667 5.42416667,17.9766667 5.50083333,17.7166667 C5.57416667,17.455 5.57916667,17.1783333 5.57583333,16.8983333 C5.5675,16.6166667 5.54916667,16.335 5.45916667,16.0233333 C5.43416667,16.01 5.4075,16 5.38083333,15.99 Z" id="Path"></path>
                        <path d="M18.7608333,15.99 C18.9791667,16.1883333 19.1075,16.425 19.2091667,16.675 C19.3058333,16.9266667 19.3758333,17.1916667 19.3575,17.4883333 C19.3375,17.7866667 19.2158333,18.115 19.1991667,18.41 C19.1958333,18.4483333 19.2058333,18.485 19.2041667,18.5216667 C19.7641667,17.7816667 20.2425,16.9966667 20.6375,16.18 C20.6275,16.015 20.6025,15.8583333 20.5425,15.72 C20.4458333,15.48 20.2408333,15.3 20.1108333,15.0816667 C19.9825,14.8633333 19.9191667,14.6133333 19.8641667,14.3583333 C19.8141667,14.1 19.7741667,13.8383333 19.7991667,13.5316667 C19.8225,13.5166667 19.8475,13.5016667 19.8708333,13.485 C20.1191667,13.6166667 20.2908333,13.8016667 20.4408333,14.005 C20.5841667,14.2116667 20.7075,14.435 20.7541667,14.7083333 C20.7975,14.9833333 20.7541667,15.3083333 20.8025,15.5766667 C20.8108333,15.6283333 20.8341667,15.6733333 20.8475,15.7233333 C21.2075,14.9066667 21.4875,14.0616667 21.6858333,13.2 C21.6408333,13.0133333 21.5791667,12.84 21.4775,12.7033333 C21.3375,12.5083333 21.1041667,12.3933333 20.9375,12.2266667 C20.7725,12.0566667 20.6641667,11.8433333 20.5641667,11.62 C20.4675,11.3916667 20.3808333,11.1583333 20.3508333,10.865 C20.3708333,10.845 20.3908333,10.825 20.4108333,10.805 C20.6708333,10.8666667 20.8691667,10.9983333 21.0491667,11.15 C21.2258333,11.305 21.3841667,11.485 21.4825,11.7233333 C21.5775,11.965 21.5991667,12.275 21.6991667,12.5083333 C21.7241667,12.5716667 21.7641667,12.62 21.7975,12.6766667 C21.9608333,11.8233333 22.0458333,10.9566667 22.0508333,10.0883333 C21.9625,9.88333333 21.8591667,9.69666667 21.7091667,9.57333333 C21.5391667,9.42666667 21.2991667,9.38 21.1108333,9.265 C20.9241667,9.14833333 20.7825,8.97166667 20.6475,8.78666667 C20.5158333,8.595 20.3925,8.39333333 20.3108333,8.12 C20.3258333,8.095 20.3408333,8.07166667 20.3558333,8.04666667 C20.6125,8.04 20.8208333,8.11833333 21.0175,8.21666667 C21.2108333,8.32166667 21.3941667,8.44833333 21.5291667,8.65166667 C21.6641667,8.85666667 21.7408333,9.14166667 21.8791667,9.335 C21.9258333,9.40333333 21.9841667,9.45333333 22.0408333,9.50666667 C22.0108333,8.65833333 21.9058333,7.81166667 21.7258333,6.975 C21.7175,6.96166667 21.7091667,6.95 21.7008333,6.93666667 C21.5658333,6.73166667 21.4158333,6.55 21.2275,6.45833333 C21.0425,6.36166667 20.8125,6.38 20.6158333,6.31666667 C20.4208333,6.25166667 20.2575,6.11833333 20.0975,5.97 C19.9408333,5.81666667 19.7891667,5.65166667 19.6608333,5.40333333 C19.6708333,5.37666667 19.6791667,5.34833333 19.6891667,5.32 C19.9241667,5.25166667 20.1308333,5.27666667 20.3308333,5.32333333 C20.5291667,5.37666667 20.7225,5.455 20.8858333,5.61666667 C21.0491667,5.78166667 21.1758333,6.03666667 21.3408333,6.18333333 C21.4125,6.25166667 21.4908333,6.29666667 21.5725,6.34 C21.3558333,5.51166667 21.0591667,4.695 20.6841667,3.90333333 C20.6775,3.91333333 20.6691667,3.92166667 20.6625,3.93166667 C20.6308333,3.89833333 20.5975,3.86666667 20.5658333,3.83333333 C20.3991667,3.66833333 20.2258333,3.53 20.0375,3.48833333 C19.8491667,3.44 19.6441667,3.515 19.4541667,3.5 C19.2641667,3.48333333 19.0875,3.39166667 18.9108333,3.28333333 C18.7358333,3.16833333 18.5625,3.04 18.3925,2.82333333 C18.3941667,2.79333333 18.3975,2.76333333 18.3991667,2.735 C18.5975,2.61333333 18.7891667,2.58833333 18.9825,2.58833333 C19.1741667,2.59333333 19.3658333,2.625 19.5491667,2.745 C19.7325,2.86833333 19.9025,3.08666667 20.0825,3.19 C20.1708333,3.245 20.2641667,3.27666667 20.3575,3.29666667 C20.3541667,3.28 20.3525,3.26166667 20.3508333,3.245 C19.7441667,2.11833333 18.9725,1.05333333 18.0341667,0.0833333333 C18.9225,0.941666667 19.6775,1.88833333 20.3008333,2.89666667 C20.2991667,2.86666667 20.2858333,2.83166667 20.2858333,2.80166667 C20.2708333,2.585 20.2608333,2.37 20.2808333,2.16666667 C20.3458333,1.76833333 20.4541667,1.38333333 20.7491667,1.05833333 C20.7808333,1.07 20.8125,1.08166667 20.8441667,1.09333333 C21.1575,1.645 21.2391667,2.12666667 21.2408333,2.56666667 C21.2275,2.78166667 21.1791667,2.97833333 21.1141667,3.16666667 C21.0608333,3.36166667 20.9641667,3.53333333 20.8441667,3.69166667 C20.8275,3.715 20.8108333,3.73666667 20.7925,3.76 C21.1491667,4.43833333 21.4491667,5.14166667 21.6908333,5.86 C21.6925,5.85333333 21.6908333,5.845 21.6925,5.83666667 C21.7375,5.61166667 21.7841667,5.38666667 21.8558333,5.17833333 C22.0225,4.77666667 22.2258333,4.395 22.5958333,4.11 C22.6241667,4.12833333 22.6525,4.145 22.6808333,4.16333333 C22.8491667,4.79666667 22.8091667,5.315 22.6975,5.77166667 C22.6308333,5.99166667 22.5291667,6.18666667 22.4158333,6.37 C22.3125,6.56166667 22.1708333,6.72166667 22.0108333,6.86333333 C22.0058333,6.86666667 22.0008333,6.87166667 21.9975,6.875 C22.1808333,7.58833333 22.3108333,8.31333333 22.3841667,9.045 C22.4825,8.83 22.5825,8.61666667 22.7025,8.425 C22.9725,8.04166667 23.2708333,7.68333333 23.7108333,7.45333333 C23.7341667,7.47666667 23.7575,7.5 23.7808333,7.52333333 C23.7908333,8.21 23.6191667,8.73666667 23.3891667,9.18666667 C23.2641667,9.40166667 23.1125,9.58333333 22.9508333,9.75 C22.8091667,9.91333333 22.6375,10.0366667 22.4558333,10.1466667 C22.4741667,10.8683333 22.4408333,11.5933333 22.3525,12.3133333 C22.4991667,12.1266667 22.6441667,11.9383333 22.8041667,11.7766667 C23.1758333,11.4366667 23.5691667,11.1233333 24.0691667,10.9616667 C24.0875,10.99 24.1041667,11.0183333 24.1225,11.0466667 C23.9625,11.7516667 23.6525,12.26 23.3025,12.675 C23.1208333,12.8716667 22.9191667,13.0283333 22.7108333,13.1666667 C22.5441667,13.2916667 22.3575,13.3716667 22.1675,13.4433333 C22.0258333,14.1466667 21.8308333,14.8416667 21.5841667,15.525 C21.7725,15.375 21.9575,15.2216667 22.1525,15.0933333 C22.6225,14.8183333 23.1041667,14.5716667 23.6575,14.4983333 C23.6691667,14.53 23.6791667,14.5616667 23.6908333,14.5933333 C23.3491667,15.2816667 22.9025,15.74 22.4341667,16.0933333 C22.1958333,16.2583333 21.9475,16.3766667 21.6958333,16.4766667 C21.5125,16.56 21.3208333,16.5966667 21.1308333,16.6316667 C20.8308333,17.2883333 20.4775,17.9283333 20.0741667,18.545 C20.2975,18.4383333 20.5191667,18.325 20.7425,18.2416667 C21.3025,18.0583333 21.8658333,17.9 22.4575,17.925 C22.4608333,17.96 22.4641667,17.9933333 22.4675,18.0283333 C21.9391667,18.6616667 21.3541667,19.0366667 20.7741667,19.3 C20.4825,19.4183333 20.1908333,19.4883333 19.9008333,19.5383333 C19.7108333,19.58 19.5241667,19.5733333 19.3358333,19.575 C19.0225,19.975 18.6841667,20.3616667 18.3241667,20.735 C18.1341667,20.545 17.9425,20.3533333 17.7525,20.1633333 C18.1675,19.7633333 18.5525,19.3416667 18.9091667,18.905 C18.9275,18.7616667 18.9341667,18.6233333 18.9141667,18.4916667 C18.8791667,18.2133333 18.7208333,17.9733333 18.6441667,17.7133333 C18.5708333,17.4516667 18.5658333,17.175 18.5691667,16.895 C18.5775,16.6133333 18.5958333,16.3316667 18.6858333,16.02 C18.7075,16.01 18.7341667,16 18.7608333,15.99 Z" id="Path"></path>
                    </g>
                    <path d="M15.126,26.572 L15.126,25.042 L15.7490132,24.4778376 C18.9885882,21.5092042 20.886,19.1792941 20.886,17.248 C20.886,15.898 20.148,15.088 18.888,15.088 C17.916,15.088 17.106,15.718 16.44,16.456 L15,15.016 C16.224,13.72 17.412,13 19.23,13 C21.75,13 23.424,14.62 23.424,17.104 C23.424,19.516 21.426,22.108 18.996,24.484 L19.6084198,24.423965 C20.1439592,24.3767347 20.7188571,24.34 21.156,24.34 L24.054,24.34 L24.054,26.572 L15.126,26.572 Z" id="2" fill="#91949B"></path>
                </g>
            </g>
        </g>
    </g>
</svg>